# 3ds Max Wavefront OBJ Exporter v0.97b - (c)2007 guruware
# 创建的文件:21.10.2024 21:07:15

mtllib jinweilou.mtl

#
# object default
#

v  -40.6519 9.0000 13.4058
v  6.2294 9.0000 11.4522
v  -40.1469 9.0000 29.1248
v  23.7908 9.0000 26.5305
v  14.7069 9.0000 11.1278
v  13.8006 9.0000 -16.1535
v  22.7008 9.0000 10.8221
v  40.0493 9.0000 10.1758
v  40.6519 9.0000 25.8930
v  5.3214 9.0000 -15.6678
v  5.3214 18.0000 -15.6678
v  6.2294 18.0000 11.4522
v  13.8006 18.0000 -16.1535
v  -40.6519 18.0000 13.4058
v  -40.1469 18.0000 29.1248
v  23.7908 18.0000 26.5305
v  14.7069 18.0000 11.1278
v  22.7008 18.0000 10.8221
v  40.0493 18.0000 10.1758
v  40.6519 18.0000 25.8930
v  -27.7342 9.0000 -27.2547
v  20.6085 9.0000 -29.1248
v  -27.2320 9.0000 -14.1940
v  21.1103 9.0000 -16.5072
v  -27.7342 18.0000 -27.2547
v  -27.2320 18.0000 -14.1940
v  20.6085 18.0000 -29.1248
v  21.1103 18.0000 -16.5072
# 28 vertices

vn 0.0000 -1.0000 -0.0000
vn 0.0000 1.0000 -0.0000
vn 0.9994 0.0000 -0.0332
vn -0.0382 0.0000 -0.9993
vn -0.0372 0.0000 -0.9993
vn 0.9993 0.0000 -0.0383
vn 0.0378 0.0000 0.9993
vn 0.0405 0.0000 0.9992
vn -0.9995 0.0000 0.0321
vn -0.0416 0.0000 -0.9991
vn -0.9994 0.0000 0.0335
vn 0.0572 0.0000 0.9984
vn 0.0477 0.0000 0.9989
vn -0.9993 0.0000 0.0384
vn -0.0387 0.0000 -0.9993
vn 0.9992 0.0000 -0.0397
vn 0.0483 0.0000 0.9988
# 17 vertex normals

g default
usemtl default
s 1
f 1//1 2//1 3//1 
f 4//1 3//1 2//1 
f 5//1 4//1 2//1 
f 6//1 5//1 2//1 
f 7//1 4//1 5//1 
f 8//1 4//1 7//1 
f 9//1 4//1 8//1 
f 2//1 10//1 6//1 
f 11//2 12//2 13//2 
f 14//2 15//2 12//2 
f 16//2 12//2 15//2 
f 17//2 12//2 16//2 
f 13//2 12//2 17//2 
f 18//2 17//2 16//2 
f 19//2 18//2 16//2 
f 20//2 19//2 16//2 
f 17//3 6//3 13//3 
f 5//3 6//3 17//3 
f 18//4 5//4 17//4 
f 7//4 5//4 18//4 
f 19//5 7//5 18//5 
f 8//5 7//5 19//5 
f 20//6 8//6 19//6 
f 9//6 8//6 20//6 
f 16//7 9//7 20//7 
f 4//7 9//7 16//7 
f 15//8 4//8 16//8 
f 3//8 4//8 15//8 
f 14//9 3//9 15//9 
f 1//9 3//9 14//9 
f 12//10 1//10 14//10 
f 2//10 1//10 12//10 
f 11//11 2//11 12//11 
f 10//11 2//11 11//11 
f 13//12 11//12 10//12 
f 6//12 13//12 10//12 
f 21//1 22//1 23//1 
f 6//1 23//1 22//1 
f 24//1 6//1 22//1 
f 25//2 26//2 27//2 
f 13//2 27//2 26//2 
f 28//2 27//2 13//2 
f 26//13 6//13 13//13 
f 23//13 6//13 26//13 
f 25//14 23//14 26//14 
f 21//14 23//14 25//14 
f 27//15 21//15 25//15 
f 22//15 21//15 27//15 
f 28//16 22//16 27//16 
f 24//16 22//16 28//16 
f 13//17 24//17 28//17 
f 6//17 24//17 13//17 
# 0 polygons - 52 triangles

