# 3ds Max Wavefront OBJ Exporter v0.97b - (c)2007 guruware
# 创建的文件:20.10.2024 23:32:07

mtllib lessBuildings.mtl

#
# object default
#

v  27.7208 9.0000 234.0857
v  50.3317 9.0000 232.9000
v  31.0977 9.0000 297.1609
v  54.3913 9.0000 296.1843
v  27.7208 18.0000 234.0857
v  31.0977 18.0000 297.1609
v  50.3317 18.0000 232.9000
v  54.3913 18.0000 296.1843
v  87.1309 9.0000 287.5039
v  91.5163 9.0000 286.9811
v  87.1374 9.0000 294.0390
v  111.5023 9.0000 293.1533
v  108.1247 9.0000 229.7459
v  88.4383 9.0000 230.8789
v  54.5788 9.0000 288.7596
v  54.5788 18.0000 288.7596
v  88.4383 18.0000 230.8789
v  91.5163 18.0000 286.9811
v  108.1247 18.0000 229.7459
v  87.1309 18.0000 287.5039
v  87.1374 18.0000 294.0390
v  111.5023 18.0000 293.1533
v  -111.5023 9.0000 -254.6304
v  -64.6211 9.0000 -256.5840
v  -110.9974 9.0000 -238.9114
v  -47.0597 9.0000 -241.5057
v  -56.1437 9.0000 -256.9083
v  -57.0499 9.0000 -284.1896
v  -48.1497 9.0000 -257.2141
v  -30.8013 9.0000 -257.8603
v  -30.1987 9.0000 -242.1431
v  -65.5292 9.0000 -283.7040
v  -65.5292 18.0000 -283.7040
v  -64.6211 18.0000 -256.5840
v  -57.0499 18.0000 -284.1896
v  -111.5023 18.0000 -254.6304
v  -110.9974 18.0000 -238.9114
v  -47.0597 18.0000 -241.5057
v  -56.1437 18.0000 -256.9083
v  -48.1497 18.0000 -257.2141
v  -30.8013 18.0000 -257.8603
v  -30.1987 18.0000 -242.1431
v  -98.5847 9.0000 -295.2909
v  -50.2420 9.0000 -297.1609
v  -98.0826 9.0000 -282.2302
v  -49.7402 9.0000 -284.5433
v  -98.5847 18.0000 -295.2909
v  -98.0826 18.0000 -282.2302
v  -50.2420 18.0000 -297.1609
v  -49.7402 18.0000 -284.5433
v  10.5491 15.0000 29.4831
v  40.6640 15.0000 27.7183
v  11.7624 15.0000 70.6652
v  35.2160 15.0000 37.1214
v  13.0712 15.0000 110.4057
v  14.4795 15.0000 152.4706
v  40.9661 15.0000 36.9063
v  40.7841 15.0000 31.3710
v  35.2229 15.0000 43.5455
v  46.0575 15.0000 151.5654
v  38.9264 15.0000 43.4783
v  46.0508 15.0000 145.0304
v  66.8901 15.0000 42.4320
v  63.0089 15.0000 144.3903
v  70.5134 15.0000 144.0324
v  70.5024 15.0000 133.6208
v  65.7121 15.0000 27.5960
v  92.6096 15.0000 25.6675
v  71.0077 15.0000 150.8909
v  94.1144 15.0000 65.8474
v  97.3223 15.0000 150.4130
v  65.8126 15.0000 30.4739
v  40.6640 30.0000 27.7183
v  40.7841 30.0000 31.3710
v  65.7121 30.0000 27.5960
v  65.8126 30.0000 30.4739
v  10.5491 30.0000 29.4831
v  11.7624 30.0000 70.6652
v  35.2160 30.0000 37.1214
v  13.0712 30.0000 110.4057
v  14.4795 30.0000 152.4706
v  40.9661 30.0000 36.9063
v  66.8901 30.0000 42.4320
v  92.6096 30.0000 25.6675
v  70.5024 30.0000 133.6208
v  71.0077 30.0000 150.8909
v  94.1144 30.0000 65.8474
v  97.3223 30.0000 150.4130
v  38.9264 30.0000 43.4783
v  46.0508 30.0000 145.0304
v  63.0089 30.0000 144.3903
v  70.5134 30.0000 144.0324
v  46.0575 30.0000 151.5654
v  35.2229 30.0000 43.5455
v  79.1773 15.0000 41.9722
v  80.2751 15.0000 66.0987
v  80.2766 15.0000 67.5386
v  81.5141 15.0000 95.8757
v  79.1773 30.0000 41.9722
v  80.2766 30.0000 67.5386
v  80.2751 30.0000 66.0987
v  81.5141 30.0000 95.8757
v  33.0970 15.0000 60.8633
v  39.5878 15.0000 60.5252
v  33.3012 15.0000 69.4991
v  33.6974 15.0000 75.5839
v  34.6021 15.0000 101.8186
v  34.9024 15.0000 109.1236
v  35.3032 15.0000 119.6389
v  41.2370 15.0000 108.6763
v  41.6247 15.0000 119.4136
v  39.8284 15.0000 66.7223
v  33.0970 30.0000 60.8633
v  33.3012 30.0000 69.4991
v  39.5878 30.0000 60.5252
v  33.6974 30.0000 75.5839
v  34.6021 30.0000 101.8186
v  34.9024 30.0000 109.1236
v  35.3032 30.0000 119.6389
v  41.2370 30.0000 108.6763
v  41.6247 30.0000 119.4136
v  39.8284 30.0000 66.7223
v  46.6415 15.0000 57.9591
v  71.2990 15.0000 57.0684
v  46.9431 15.0000 66.5932
v  47.3433 15.0000 76.2224
v  72.0005 15.0000 75.2209
v  71.7973 15.0000 67.4711
v  46.6415 30.0000 57.9591
v  46.9431 30.0000 66.5932
v  71.2990 30.0000 57.0684
v  47.3433 30.0000 76.2224
v  72.0005 30.0000 75.2209
v  71.7973 30.0000 67.4711
v  48.4416 15.0000 101.1243
v  73.0985 15.0000 99.9013
v  48.7417 15.0000 108.6509
v  49.3357 15.0000 117.2797
v  73.9929 15.0000 116.1674
v  73.5953 15.0000 108.7534
v  48.4416 30.0000 101.1243
v  48.7417 30.0000 108.6509
v  73.0985 30.0000 99.9013
v  49.3357 30.0000 117.2797
v  73.9929 30.0000 116.1674
v  73.5953 30.0000 108.7534
v  -94.3333 18.0000 117.9978
v  -88.6801 18.0000 117.6742
v  -93.5350 18.0000 135.9271
v  -88.1851 18.0000 125.0864
v  -48.8946 18.0000 133.9025
v  -62.4530 18.0000 124.2895
v  -62.2732 18.0000 109.7761
v  -49.4976 18.0000 116.4125
v  -50.2029 18.0000 94.2725
v  -96.2085 18.0000 95.5464
v  -84.0249 18.0000 94.9944
v  -95.9051 18.0000 106.1743
v  -83.4289 18.0000 105.6169
v  -72.6211 18.0000 94.4561
v  -71.7327 18.0000 105.1842
v  -65.7984 18.0000 94.1113
v  -65.3835 18.0000 104.9618
v  -65.1973 18.0000 109.8290
v  -96.2085 36.0000 95.5464
v  -95.9051 36.0000 106.1743
v  -84.0249 36.0000 94.9944
v  -83.4289 36.0000 105.6169
v  -72.6211 36.0000 94.4561
v  -71.7327 36.0000 105.1842
v  -65.7984 36.0000 94.1113
v  -65.3835 36.0000 104.9618
v  -50.2029 36.0000 94.2725
v  -65.1973 36.0000 109.8290
v  -62.2732 36.0000 109.7761
v  -94.3333 36.0000 117.9978
v  -93.5350 36.0000 135.9271
v  -88.6801 36.0000 117.6742
v  -88.1851 36.0000 125.0864
v  -48.8946 36.0000 133.9025
v  -62.4530 36.0000 124.2895
v  -49.4976 36.0000 116.4125
v  -96.1413 18.0000 66.5251
v  -90.9753 18.0000 66.4319
v  -96.1210 18.0000 85.9084
v  -90.9557 18.0000 85.2614
v  -96.1413 36.0000 66.5251
v  -96.1210 36.0000 85.9084
v  -90.9753 36.0000 66.4319
v  -90.9557 36.0000 85.2614
v  -50.9147 18.0000 66.0406
v  -90.6717 18.0000 77.1705
v  -64.9389 18.0000 77.2597
v  -64.3364 18.0000 94.0850
v  -90.6717 36.0000 77.1705
v  -50.9147 36.0000 66.0406
v  -64.9389 36.0000 77.2597
v  -64.3364 36.0000 94.0850
v  -48.7784 18.0000 58.5807
v  -30.6490 18.0000 58.4742
v  -47.3326 18.0000 136.3110
v  -29.4953 18.0000 136.5420
v  -48.7784 36.0000 58.5807
v  -47.3326 36.0000 136.3110
v  -30.6490 36.0000 58.4742
v  -29.4953 36.0000 136.5420
v  -52.7513 18.0000 -11.1283
v  -40.4701 18.0000 -11.2397
v  -52.7458 18.0000 -6.0333
v  -52.3414 18.0000 7.4725
v  -52.3340 18.0000 14.5612
v  -40.1725 18.0000 -6.2607
v  -39.3787 18.0000 6.7950
v  -38.8839 18.0000 13.7640
v  -52.7513 36.0000 -11.1283
v  -52.7458 36.0000 -6.0333
v  -40.4701 36.0000 -11.2397
v  -52.3414 36.0000 7.4725
v  -52.3340 36.0000 14.5612
v  -40.1725 36.0000 -6.2607
v  -39.3787 36.0000 6.7950
v  -38.8839 36.0000 13.7640
v  -98.0462 21.0000 16.4944
v  -48.7276 21.0000 14.3852
v  -97.3430 21.0000 36.1976
v  -33.9893 21.0000 33.5022
v  -34.2906 21.0000 25.2003
v  -34.6930 21.0000 13.5775
v  -98.0462 42.0000 16.4944
v  -97.3430 42.0000 36.1976
v  -48.7276 42.0000 14.3852
v  -33.9893 42.0000 33.5022
v  -34.2906 42.0000 25.2003
v  -34.6930 42.0000 13.5775
v  -99.6545 21.0000 -29.2218
v  -36.3013 21.0000 -31.9170
v  -98.7558 21.0000 -9.0791
v  -49.0474 21.0000 -11.0846
v  -35.5969 21.0000 -11.3279
v  -35.9013 21.0000 -22.6202
v  -99.6545 42.0000 -29.2218
v  -98.7558 42.0000 -9.0791
v  -36.3013 42.0000 -31.9170
v  -49.0474 42.0000 -11.0846
v  -35.5969 42.0000 -11.3279
v  -35.9013 42.0000 -22.6202
# 246 vertices

vn 0.0000 -1.0000 -0.0000
vn 0.0000 1.0000 -0.0000
vn 0.9979 0.0000 -0.0640
vn -0.9979 0.0000 0.0640
vn -0.0419 0.0000 -0.9991
vn 0.9986 0.0000 -0.0535
vn 0.0524 0.0000 0.9986
vn -0.0530 0.0000 -0.9986
vn 0.0530 0.0000 0.9986
vn 0.0575 0.0000 0.9983
vn -0.9986 0.0000 0.0532
vn -0.0363 0.0000 -0.9993
vn 1.0000 0.0000 -0.0010
vn 0.1184 0.0000 0.9930
vn -0.0481 0.0000 -0.9988
vn 0.9971 0.0000 -0.0758
vn 0.9994 0.0000 -0.0332
vn -0.9994 0.0000 0.0332
vn 0.0382 0.0000 0.9993
vn 0.0372 0.0000 0.9993
vn -0.9993 0.0000 0.0383
vn -0.0378 0.0000 -0.9993
vn -0.0405 0.0000 -0.9992
vn 0.9995 0.0000 -0.0321
vn 0.0416 0.0000 0.9991
vn 0.9994 0.0000 -0.0335
vn 0.0572 0.0000 0.9984
vn 0.0477 0.0000 0.9989
vn -0.0477 0.0000 -0.9989
vn 0.9993 0.0000 -0.0384
vn 0.0387 0.0000 0.9993
vn -0.9992 0.0000 0.0397
vn -0.0483 0.0000 -0.9988
vn 1.0000 0.0000 -0.0000
vn 0.9994 0.0000 -0.0349
vn -0.9994 0.0000 0.0349
vn -0.0358 0.0000 -0.9994
vn -0.9995 0.0000 0.0329
vn -0.0374 0.0000 -0.9993
vn -1.0000 0.0000 0.0011
vn 0.0181 0.0000 0.9998
vn 0.0374 0.0000 0.9993
vn 0.9969 0.0000 -0.0792
vn 0.0715 0.0000 0.9974
vn -0.9993 0.0000 0.0374
vn -0.9993 0.0000 0.0379
vn -0.0182 0.0000 -0.9998
vn 0.9996 0.0000 -0.0292
vn -1.0000 0.0000 0.0010
vn -0.0476 0.0000 -0.9989
vn -0.0377 0.0000 -0.9993
vn -0.0287 0.0000 -0.9996
vn 0.9995 0.0000 -0.0329
vn 0.9996 0.0000 -0.0294
vn 0.0585 0.0000 0.9983
vn 0.0049 0.0000 1.0000
vn 0.9990 0.0000 -0.0455
vn -0.9990 0.0000 0.0455
vn -0.9991 0.0000 0.0416
vn 0.9990 0.0000 -0.0436
vn 0.9991 0.0000 -0.0430
vn 0.9993 0.0000 -0.0361
vn -0.9993 0.0000 0.0361
vn -0.0356 0.0000 -0.9994
vn 0.9993 0.0000 -0.0381
vn 0.9992 0.0000 -0.0411
vn 0.9994 0.0000 -0.0345
vn 0.9979 0.0000 -0.0650
vn 0.9997 0.0000 -0.0236
vn 0.0520 0.0000 0.9986
vn -0.9992 0.0000 0.0388
vn -0.9994 0.0000 0.0336
vn 0.0361 0.0000 0.9993
vn -0.9989 0.0000 0.0479
vn -0.9997 0.0000 0.0262
vn -0.0406 0.0000 -0.9992
vn 0.9991 0.0000 -0.0415
vn -0.9992 0.0000 0.0399
vn 0.9992 0.0000 -0.0399
vn 0.0495 0.0000 0.9988
vn -0.9984 0.0000 0.0560
vn -0.9986 0.0000 0.0536
vn -0.0451 0.0000 -0.9990
vn 0.9976 0.0000 -0.0687
vn 0.9995 0.0000 -0.0318
vn -0.9995 0.0000 0.0318
vn -0.9994 0.0000 0.0345
vn -0.0453 0.0000 -0.9990
vn 0.9990 0.0000 -0.0445
vn 0.0571 0.0000 0.9984
vn -0.9978 0.0000 0.0666
vn 0.0310 0.0000 0.9995
vn 0.9999 0.0000 0.0124
vn -0.0181 0.0000 -0.9998
vn 0.9993 0.0000 -0.0382
vn -0.0350 0.0000 -0.9994
vn -0.0370 0.0000 -0.9993
vn -0.0446 0.0000 -0.9990
vn 0.9996 0.0000 -0.0285
vn 0.0453 0.0000 0.9990
vn 0.0472 0.0000 0.9989
vn 0.0505 0.0000 0.9987
vn -0.0103 0.0000 0.9999
vn -0.1243 0.0000 -0.9922
vn 0.0180 0.0000 0.9998
vn -0.0133 0.0000 0.9999
vn 0.0133 0.0000 -0.9999
vn 0.9994 0.0000 -0.0358
vn 0.0035 0.0000 -1.0000
vn 0.9996 0.0000 -0.0283
vn 0.0098 0.0000 1.0000
vn -0.9997 0.0000 0.0252
vn 0.9999 0.0000 -0.0148
vn -0.9999 0.0000 0.0148
vn 0.0129 0.0000 -0.9999
vn 0.9998 0.0000 -0.0186
vn 0.0059 0.0000 1.0000
vn 0.0592 0.0000 0.9982
vn -0.0592 0.0000 -0.9982
vn 1.0000 0.0000 -0.0011
vn 0.9996 0.0000 -0.0299
vn 0.0091 0.0000 1.0000
vn -0.9982 0.0000 0.0597
vn -0.9982 0.0000 0.0607
vn -0.9975 0.0000 0.0708
vn 0.0425 0.0000 0.9991
vn -0.0425 0.0000 -0.9991
vn 0.9994 0.0000 -0.0357
vn 0.0427 0.0000 0.9991
vn -0.9994 0.0000 0.0346
vn -0.9993 0.0000 0.0363
vn 0.0403 0.0000 0.9992
vn -0.0403 0.0000 -0.9992
vn 0.9990 0.0000 -0.0446
vn -0.9991 0.0000 0.0430
vn -0.9996 0.0000 0.0270
# 136 vertex normals

g default
usemtl Material__25
s 1
f 1//1 2//1 3//1 
f 4//1 3//1 2//1 
f 5//2 6//2 7//2 
f 8//2 7//2 6//2 
f 8//3 2//3 7//3 
f 4//4 8//4 2//4 
f 6//5 8//5 4//5 
f 3//5 6//5 4//5 
f 5//6 6//6 3//6 
f 1//6 5//6 3//6 
f 7//7 5//7 1//7 
f 2//7 7//7 1//7 
f 9//1 10//1 11//1 
f 12//1 11//1 10//1 
f 13//1 12//1 10//1 
f 2//1 14//1 15//1 
f 10//1 15//1 14//1 
f 13//1 10//1 14//1 
f 7//2 16//2 17//2 
f 18//2 17//2 16//2 
f 19//2 17//2 18//2 
f 20//2 21//2 18//2 
f 22//2 18//2 21//2 
f 19//2 18//2 22//2 
f 17//8 2//8 7//8 
f 14//9 17//9 2//9 
f 19//10 17//10 14//10 
f 13//10 19//10 14//10 
f 22//11 19//11 13//11 
f 12//11 22//11 13//11 
f 21//12 22//12 12//12 
f 11//12 21//12 12//12 
f 20//13 21//13 11//13 
f 9//13 20//13 11//13 
f 18//14 20//14 9//14 
f 10//14 18//14 9//14 
f 16//15 18//15 10//15 
f 15//15 16//15 10//15 
f 7//16 16//16 15//16 
f 2//16 7//16 15//16 
f 23//1 24//1 25//1 
f 26//1 25//1 24//1 
f 27//1 26//1 24//1 
f 28//1 27//1 24//1 
f 29//1 26//1 27//1 
f 30//1 26//1 29//1 
f 31//1 26//1 30//1 
f 24//1 32//1 28//1 
f 33//2 34//2 35//2 
f 36//2 37//2 34//2 
f 38//2 34//2 37//2 
f 39//2 34//2 38//2 
f 35//2 34//2 39//2 
f 40//2 39//2 38//2 
f 41//2 40//2 38//2 
f 42//2 41//2 38//2 
f 39//17 28//17 35//17 
f 27//18 39//18 28//18 
f 40//19 39//19 27//19 
f 29//19 40//19 27//19 
f 41//20 40//20 29//20 
f 30//20 41//20 29//20 
f 42//21 41//21 30//21 
f 31//21 42//21 30//21 
f 38//22 42//22 31//22 
f 26//22 38//22 31//22 
f 37//23 38//23 26//23 
f 25//23 37//23 26//23 
f 36//24 37//24 25//24 
f 23//24 36//24 25//24 
f 34//25 36//25 23//25 
f 24//25 34//25 23//25 
f 33//26 34//26 24//26 
f 32//26 33//26 24//26 
f 35//27 33//27 32//27 
f 28//27 35//27 32//27 
f 43//1 44//1 45//1 
f 28//1 45//1 44//1 
f 46//1 28//1 44//1 
f 47//2 48//2 49//2 
f 35//2 49//2 48//2 
f 50//2 49//2 35//2 
f 48//28 28//28 35//28 
f 45//29 48//29 28//29 
f 47//30 48//30 45//30 
f 43//30 47//30 45//30 
f 49//31 47//31 43//31 
f 44//31 49//31 43//31 
f 50//32 49//32 44//32 
f 46//32 50//32 44//32 
f 35//33 50//33 46//33 
f 28//33 35//33 46//33 
f 51//1 52//1 53//1 
f 54//1 53//1 52//1 
f 55//1 53//1 54//1 
f 56//1 55//1 54//1 
f 57//1 54//1 52//1 
f 58//1 57//1 52//2 
f 54//1 59//1 56//1 
f 60//1 56//1 59//1 
f 61//1 60//1 59//1 
f 62//1 60//1 61//1 
f 61//1 63//1 62//1 
f 64//1 62//1 63//1 
f 65//1 64//1 63//1 
f 66//1 65//1 63//1 
f 67//1 68//1 63//1 
f 66//1 63//1 68//1 
f 69//1 66//1 68//1 
f 70//1 69//1 68//1 
f 71//1 69//1 70//1 
f 52//1 67//1 58//1 
f 72//1 58//1 67//1 
f 73//2 74//2 75//2 
f 76//2 75//2 74//2 
f 77//2 78//2 73//2 
f 79//2 73//2 78//2 
f 80//2 79//2 78//2 
f 81//2 79//2 80//2 
f 82//2 73//2 79//2 
f 74//2 73//34 82//34 
f 75//2 83//2 84//2 
f 85//2 84//2 83//2 
f 86//2 84//2 85//2 
f 87//2 84//2 86//2 
f 88//2 87//2 86//2 
f 89//2 90//2 83//2 
f 91//2 83//2 90//2 
f 92//2 83//2 91//2 
f 85//2 83//2 92//2 
f 93//2 94//2 81//2 
f 79//2 81//2 94//2 
f 89//2 94//2 93//2 
f 90//2 89//2 93//2 
f 76//35 67//35 75//35 
f 72//36 76//36 67//36 
f 74//37 76//37 72//37 
f 58//37 74//37 72//37 
f 82//38 74//38 58//38 
f 57//38 82//38 58//38 
f 79//39 82//39 57//39 
f 54//39 79//39 57//39 
f 94//40 79//40 54//40 
f 59//40 94//40 54//40 
f 89//41 94//41 59//41 
f 61//41 89//41 59//41 
f 83//42 89//42 61//42 
f 63//42 83//42 61//42 
f 75//43 83//43 63//43 
f 67//43 75//43 63//43 
f 84//44 75//44 67//44 
f 68//44 84//44 67//44 
f 87//45 84//45 68//45 
f 70//45 87//45 68//45 
f 88//46 87//46 70//46 
f 71//46 88//46 70//46 
f 86//47 88//47 71//47 
f 69//47 86//47 71//47 
f 85//48 86//48 69//48 
f 66//48 85//48 69//48 
f 92//49 85//49 66//49 
f 65//49 92//49 66//49 
f 91//50 92//50 65//50 
f 64//50 91//50 65//50 
f 90//51 91//51 64//51 
f 62//51 90//51 64//51 
f 93//49 90//49 62//49 
f 60//49 93//49 62//49 
f 81//52 93//52 60//52 
f 56//52 81//52 60//52 
f 80//26 81//26 56//26 
f 55//26 80//26 56//26 
f 78//53 80//53 55//53 
f 53//53 78//53 55//53 
f 77//54 78//54 53//54 
f 51//54 77//54 53//54 
f 73//55 77//55 51//55 
f 52//55 73//55 51//55 
f 75//56 73//56 52//56 
f 67//56 75//56 52//56 
f 95//1 96//1 97//1 
f 98//1 97//1 96//1 
f 99//2 100//2 101//2 
f 102//2 101//2 100//2 
f 101//57 95//57 99//57 
f 96//58 101//58 95//58 
f 102//59 101//59 96//59 
f 98//59 102//59 96//59 
f 100//60 102//60 98//60 
f 97//60 100//60 98//60 
f 99//61 100//61 97//61 
f 95//61 99//61 97//61 
f 103//1 104//1 105//1 
f 106//1 105//1 104//1 
f 107//1 106//1 104//1 
f 108//1 107//1 104//1 
f 109//1 108//1 104//1 
f 110//1 109//1 104//1 
f 111//1 109//1 110//1 
f 112//1 110//1 104//1 
f 113//2 114//2 115//2 
f 116//2 115//2 114//2 
f 117//2 115//2 116//2 
f 118//2 115//2 117//2 
f 119//2 115//2 118//2 
f 120//2 115//2 119//2 
f 121//2 120//2 119//2 
f 122//2 115//2 120//2 
f 121//62 110//62 120//62 
f 111//63 121//63 110//63 
f 119//64 121//64 111//64 
f 109//64 119//64 111//64 
f 118//65 119//65 109//65 
f 108//65 118//65 109//65 
f 117//66 118//66 108//66 
f 107//66 117//66 108//66 
f 116//67 117//67 107//67 
f 106//67 116//67 107//67 
f 114//68 116//68 106//68 
f 105//68 114//68 106//68 
f 113//69 114//69 105//69 
f 103//69 113//69 105//69 
f 115//70 113//70 103//70 
f 104//70 115//70 103//70 
f 122//71 115//71 104//71 
f 112//71 122//71 104//71 
f 120//72 122//72 112//72 
f 110//72 120//72 112//72 
f 123//1 124//1 125//1 
f 126//1 125//1 124//1 
f 127//1 126//1 124//1 
f 128//1 127//1 124//1 
f 129//2 130//2 131//2 
f 132//2 131//2 130//2 
f 133//2 131//2 132//2 
f 134//2 131//2 133//2 
f 129//36 125//36 130//36 
f 123//35 129//35 125//35 
f 131//73 129//73 123//73 
f 124//73 131//73 123//73 
f 134//74 131//74 124//74 
f 128//74 134//74 124//74 
f 133//75 134//75 128//75 
f 127//75 133//75 128//75 
f 132//76 133//76 127//76 
f 126//76 132//76 127//76 
f 130//77 132//77 126//77 
f 125//77 130//77 126//77 
f 135//1 136//1 137//1 
f 138//1 137//1 136//1 
f 139//1 138//1 136//1 
f 140//1 139//1 136//1 
f 141//2 142//2 143//2 
f 144//2 143//2 142//2 
f 145//2 143//2 144//2 
f 146//2 143//2 145//2 
f 141//78 137//78 142//78 
f 135//79 141//79 137//79 
f 143//80 141//80 135//80 
f 136//80 143//80 135//80 
f 146//81 143//81 136//81 
f 140//81 146//81 136//81 
f 145//82 146//82 140//82 
f 139//82 145//82 140//82 
f 144//83 145//83 139//83 
f 138//83 144//83 139//83 
f 142//84 144//84 138//84 
f 137//84 142//84 138//84 
f 147//1 148//1 149//1 
f 150//1 149//1 148//1 
f 151//1 149//1 150//1 
f 152//1 151//1 150//1 
f 153//1 151//1 152//1 
f 154//1 151//1 153//1 
f 155//1 154//1 153//1 
f 156//1 157//1 158//1 
f 159//1 158//1 157//1 
f 160//1 159//1 157//1 
f 161//1 159//1 160//1 
f 162//1 161//1 160//1 
f 163//1 161//1 162//1 
f 155//1 163//1 162//1 
f 164//1 163//1 155//1 
f 153//1 164//1 155//1 
f 165//2 166//2 167//2 
f 168//2 167//2 166//2 
f 169//2 167//2 168//2 
f 170//2 169//2 168//2 
f 171//2 169//2 170//2 
f 172//2 171//2 170//2 
f 173//2 171//2 172//2 
f 174//2 173//2 172//2 
f 175//2 173//2 174//2 
f 176//2 177//2 178//2 
f 179//2 178//2 177//2 
f 180//2 179//2 177//2 
f 181//2 179//2 180//2 
f 175//2 181//2 180//2 
f 182//2 175//2 180//2 
f 173//2 175//2 182//2 
f 182//85 155//85 173//85 
f 154//86 182//86 155//86 
f 180//87 182//87 154//87 
f 151//87 180//87 154//87 
f 177//88 180//88 151//88 
f 149//88 177//88 151//88 
f 176//89 177//89 149//89 
f 147//89 176//89 149//89 
f 178//90 176//90 147//90 
f 148//90 178//90 147//90 
f 179//91 178//91 148//91 
f 150//91 179//91 148//91 
f 181//92 179//92 150//92 
f 152//92 181//92 150//92 
f 175//93 181//93 152//93 
f 153//93 175//93 152//93 
f 174//94 175//94 153//94 
f 164//94 174//94 153//94 
f 172//95 174//95 164//95 
f 163//95 172//95 164//95 
f 170//96 172//96 163//96 
f 161//96 170//96 163//96 
f 168//97 170//97 161//97 
f 159//97 168//97 161//97 
f 166//98 168//98 159//98 
f 158//98 166//98 159//98 
f 165//99 166//99 158//99 
f 156//99 165//99 158//99 
f 167//100 165//100 156//100 
f 157//100 167//100 156//100 
f 169//101 167//101 157//101 
f 160//101 169//101 157//101 
f 171//102 169//102 160//102 
f 162//102 171//102 160//102 
f 173//103 171//103 162//103 
f 155//103 173//103 162//103 
f 183//1 184//1 185//1 
f 186//1 185//1 184//1 
f 187//2 188//2 189//2 
f 190//2 189//2 188//2 
f 190//13 184//13 189//13 
f 186//49 190//49 184//49 
f 188//104 190//104 186//104 
f 185//104 188//104 186//104 
f 187//13 188//13 185//13 
f 183//13 187//13 185//13 
f 189//105 187//105 183//105 
f 184//105 189//105 183//105 
f 184//1 191//1 192//1 
f 193//1 192//1 191//1 
f 194//1 193//1 191//1 
f 155//1 194//1 191//1 
f 189//2 195//2 196//2 
f 197//2 196//2 195//2 
f 198//2 196//2 197//2 
f 173//2 196//2 198//2 
f 198//106 155//106 173//106 
f 194//107 198//107 155//107 
f 197//108 198//108 194//108 
f 193//108 197//108 194//108 
f 195//109 197//109 193//109 
f 192//109 195//109 193//109 
f 189//110 195//110 192//110 
f 184//110 189//110 192//110 
f 196//111 189//111 184//111 
f 191//111 196//111 184//111 
f 173//112 196//112 191//112 
f 155//112 173//112 191//112 
f 199//1 200//1 201//1 
f 202//1 201//1 200//1 
f 203//2 204//2 205//2 
f 206//2 205//2 204//2 
f 206//113 200//113 205//113 
f 202//114 206//114 200//114 
f 204//115 206//115 202//115 
f 201//115 204//115 202//115 
f 203//116 204//116 201//116 
f 199//116 203//116 201//116 
f 205//117 203//117 199//117 
f 200//117 205//117 199//117 
f 207//1 208//1 209//1 
f 210//1 209//1 208//1 
f 211//1 210//1 208//1 
f 212//1 211//1 208//1 
f 213//1 211//1 212//1 
f 214//1 211//1 213//1 
f 215//2 216//2 217//2 
f 218//2 217//2 216//2 
f 219//2 217//2 218//2 
f 220//2 217//2 219//2 
f 221//2 220//2 219//2 
f 222//2 221//2 219//2 
f 219//118 214//118 222//118 
f 211//119 219//119 214//119 
f 218//120 219//120 211//120 
f 210//120 218//120 211//120 
f 216//121 218//121 210//121 
f 209//121 216//121 210//121 
f 215//120 216//120 209//120 
f 207//120 215//120 209//120 
f 217//122 215//122 207//122 
f 208//122 217//122 207//122 
f 220//123 217//123 208//123 
f 212//123 220//123 208//123 
f 221//124 220//124 212//124 
f 213//124 221//124 212//124 
f 222//125 221//125 213//125 
f 214//125 222//125 213//125 
f 223//1 224//1 225//1 
f 226//1 225//1 224//1 
f 227//1 226//1 224//1 
f 228//1 227//1 224//1 
f 229//2 230//2 231//2 
f 232//2 231//2 230//2 
f 233//2 231//2 232//2 
f 234//2 231//2 233//2 
f 230//126 226//126 232//126 
f 225//127 230//127 226//127 
f 229//128 230//128 225//128 
f 223//128 229//128 225//128 
f 231//129 229//129 223//129 
f 224//129 231//129 223//129 
f 234//10 231//10 224//10 
f 228//10 234//10 224//10 
f 233//130 234//130 228//130 
f 227//130 233//130 228//130 
f 232//131 233//131 227//131 
f 226//131 232//131 227//131 
f 235//1 236//1 237//1 
f 238//1 237//1 236//1 
f 239//1 238//1 236//1 
f 240//1 239//1 236//1 
f 241//2 242//2 243//2 
f 244//2 243//2 242//2 
f 245//2 243//2 244//2 
f 246//2 243//2 245//2 
f 242//132 238//132 244//132 
f 237//133 242//133 238//133 
f 241//134 242//134 237//134 
f 235//134 241//134 237//134 
f 243//126 241//126 235//126 
f 236//126 243//126 235//126 
f 246//135 243//135 236//135 
f 240//135 246//135 236//135 
f 245//136 246//136 240//136 
f 239//136 245//136 240//136 
f 244//94 245//94 239//94 
f 238//94 244//94 239//94 
# 0 polygons - 448 triangles

