{
  "accessors": [
    {
      "name": "GeoSphere001_1_0_positions",
      "componentType": 5126,
      "count": 181,
      "min": [
        -28.80069923400879,
        -38.51539993286133,
        -55.10499954223633
      ],
      "max": [
        48.22999954223633,
        38.51539993286133,
        21.925800323486328
      ],
      "type": "VEC3",
      "bufferView": 0,
      "byteOffset": 0
    },
    {
      "name": "GeoSphere001_1_0_normals",
      "componentType": 5126,
      "count": 181,
      "min": [
        -0.9999963641166687,
        -1,
        -1
      ],
      "max": [
        0.9999963641166687,
        1,
        1
      ],
      "type": "VEC3",
      "bufferView": 1,
      "byteOffset": 0
    },
    {
      "name": "GeoSphere001_1_0_texcoords",
      "componentType": 5126,
      "count": 181,
      "min": [
        -0.20000000298023224,
        0
      ],
      "max": [
        0.9753999710083008,
        1
      ],
      "type": "VEC2",
      "bufferView": 2,
      "byteOffset": 0
    },
    {
      "name": "GeoSphere001_1_0_indices",
      "componentType": 5123,
      "count": 960,
      "min": [
        0
      ],
      "max": [
        180
      ],
      "type": "SCALAR",
      "bufferView": 3,
      "byteOffset": 0
    }
  ],
  "asset": {
    "generator": "obj2gltf",
    "version": "2.0"
  },
  "buffers": [
    {
      "name": "3dtest",
      "byteLength": 302624,
      "uri": "data:application/octet-stream;base64,"
    }
  ],
  "bufferViews": [
    {
      "name": "bufferView_0",
      "buffer": 0,
      "byteLength": 2172,
      "byteOffset": 0,
      "byteStride": 12,
      "target": 34962
    },
    {
      "name": "bufferView_1",
      "buffer": 0,
      "byteLength": 2172,
      "byteOffset": 2172,
      "byteStride": 12,
      "target": 34962
    },
    {
      "name": "bufferView_2",
      "buffer": 0,
      "byteLength": 1448,
      "byteOffset": 4344,
      "byteStride": 8,
      "target": 34962
    },
    {
      "name": "bufferView_3",
      "buffer": 0,
      "byteLength": 1920,
      "byteOffset": 5792,
      "target": 34963
    },
    {
      "buffer": 0,
      "byteOffset": 7712,
      "byteLength": 294912
    }
  ],
  "images": [
    {
      "name": "BARK5",
      "mimeType": "image/jpeg",
      "bufferView": 4
    }
  ],
  "materials": [
    {
      "name": "01___Default",
      "pbrMetallicRoughness": {
        "baseColorTexture": {
          "index": 0
        },
        "baseColorFactor": [
          1,
          1,
          1,
          1
        ],
        "metallicFactor": 0,
        "roughnessFactor": 0.99
      },
      "emissiveFactor": [
        0,
        0,
        0
      ],
      "alphaMode": "OPAQUE",
      "doubleSided": false
    }
  ],
  "meshes": [
    {
      "name": "GeoSphere001_1",
      "primitives": [
        {
          "attributes": {
            "POSITION": 0,
            "NORMAL": 1,
            "TEXCOORD_0": 2
          },
          "indices": 3,
          "material": 0,
          "mode": 4
        }
      ]
    }
  ],
  "nodes": [
    {
      "name": "GeoSphere001",
      "mesh": 0
    }
  ],
  "samplers": [
    {
      "wrapS": 10497,
      "wrapT": 10497
    }
  ],
  "scene": 0,
  "scenes": [
    {
      "nodes": [
        0
      ]
    }
  ],
  "textures": [
    {
      "name": "BARK5",
      "sampler": 0,
      "source": 0
    }
  ]
}
