{
  "accessors": [
    {
      "name": "default_1_0_positions",
      "componentType": 5126,
      "count": 35,
      "min": [
        -40.65190124511719,
        9,
        -29.124799728393555
      ],
      "max": [
        40.65190124511719,
        18,
        29.124799728393555
      ],
      "type": "VEC3",
      "bufferView": 0,
      "byteOffset": 0
    },
    {
      "name": "default_1_0_normals",
      "componentType": 5126,
      "count": 35,
      "min": [
        -0.7013902068138123,
        -0.9051101803779602,
        -0.7067046761512756
      ],
      "max": [
        0.6020095944404602,
        0.9051101803779602,
        0.9988617897033691
      ],
      "type": "VEC3",
      "bufferView": 1,
      "byteOffset": 0
    },
    {
      "name": "default_1_0_texcoords",
      "componentType": 5126,
      "count": 35,
      "min": [
        0,
        1
      ],
      "max": [
        0,
        1
      ],
      "type": "VEC2",
      "bufferView": 2,
      "byteOffset": 0
    },
    {
      "name": "default_1_0_indices",
      "componentType": 5123,
      "count": 156,
      "min": [
        0
      ],
      "max": [
        34
      ],
      "type": "SCALAR",
      "bufferView": 3,
      "byteOffset": 0
    }
  ],
  "asset": {
    "generator": "obj2gltf",
    "version": "2.0"
  },
  "buffers": [
    {
      "name": "jinweilouWithTile",
      "byteLength": 28452,
      "uri": "data:application/octet-stream;base64,"
    }
  ],
  "bufferViews": [
    {
      "name": "bufferView_0",
      "buffer": 0,
      "byteLength": 420,
      "byteOffset": 0,
      "byteStride": 12,
      "target": 34962
    },
    {
      "name": "bufferView_1",
      "buffer": 0,
      "byteLength": 420,
      "byteOffset": 420,
      "byteStride": 12,
      "target": 34962
    },
    {
      "name": "bufferView_2",
      "buffer": 0,
      "byteLength": 280,
      "byteOffset": 840,
      "byteStride": 8,
      "target": 34962
    },
    {
      "name": "bufferView_3",
      "buffer": 0,
      "byteLength": 312,
      "byteOffset": 1120,
      "target": 34963
    },
    {
      "buffer": 0,
      "byteOffset": 1432,
      "byteLength": 27019
    }
  ],
  "images": [
    {
      "name": "Wood",
      "mimeType": "image/jpeg",
      "bufferView": 4
    }
  ],
  "materials": [
    {
      "name": "Material__26",
      "pbrMetallicRoughness": {
        "baseColorTexture": {
          "index": 0
        },
        "baseColorFactor": [
          1,
          1,
          1,
          1
        ],
        "metallicFactor": 0,
        "roughnessFactor": 0.99
      },
      "emissiveFactor": [
        0,
        0,
        0
      ],
      "alphaMode": "OPAQUE",
      "doubleSided": false
    }
  ],
  "meshes": [
    {
      "name": "default_1",
      "primitives": [
        {
          "attributes": {
            "POSITION": 0,
            "NORMAL": 1,
            "TEXCOORD_0": 2
          },
          "indices": 3,
          "material": 0,
          "mode": 4
        }
      ]
    }
  ],
  "nodes": [
    {
      "name": "default",
      "mesh": 0
    }
  ],
  "samplers": [
    {
      "wrapS": 10497,
      "wrapT": 10497
    }
  ],
  "scene": 0,
  "scenes": [
    {
      "nodes": [
        0
      ]
    }
  ],
  "textures": [
    {
      "name": "Wood",
      "sampler": 0,
      "source": 0
    }
  ]
}
